<svg id="Layer_1" height="512" viewBox="0 0 402.31 511.22" width="512" xmlns="http://www.w3.org/2000/svg" data-name="Layer 1"><path d="m6.44 383.81a32 32 0 0 0 31.91 31.92l108.34.41a32 32 0 0 1 31.92 31.92v24.8a32 32 0 0 1 -31.92 31.92h-108.34a32 32 0 0 1 -31.91-31.92z" fill="#a14567"/><path d="m146.69 511.22h-108.34a38.4 38.4 0 0 1 -38.35-38.36v-89.05a6.44 6.44 0 1 1 12.87 0 25.51 25.51 0 0 0 25.48 25.48l108.37.41a38.4 38.4 0 0 1 38.33 38.36v24.8a38.41 38.41 0 0 1 -38.36 38.36zm-133.82-98.76v60.4a25.51 25.51 0 0 0 25.48 25.49h108.34a25.51 25.51 0 0 0 25.48-25.49v-24.8a25.51 25.51 0 0 0 -25.48-25.49l-108.36-.41a38.2 38.2 0 0 1 -25.46-9.7z" fill="#231f20"/><path d="m111.06 31.24a49.09 49.09 0 0 0 -48.95 48.94v349.69a49.09 49.09 0 0 0 49 48.94h235.82a49.08 49.08 0 0 0 48.94-48.94v-353a45.76 45.76 0 0 0 -45.63-45.63z" fill="#c6c6c5"/><path d="m346.93 485.25h-235.87a55.45 55.45 0 0 1 -55.39-55.38v-349.69a55.45 55.45 0 0 1 55.39-55.38h239.18a52.13 52.13 0 0 1 52.07 52.07v353a55.44 55.44 0 0 1 -55.38 55.38zm-235.87-447.58a42.56 42.56 0 0 0 -42.51 42.51v349.69a42.56 42.56 0 0 0 42.51 42.51h235.87a42.56 42.56 0 0 0 42.51-42.51v-353a39.24 39.24 0 0 0 -39.2-39.2z" fill="#231f20"/><path d="m370.27 153.18v251.88a49.1 49.1 0 0 1 -48.95 48.94h-235.87a49.1 49.1 0 0 1 -48.95-48.94v-349.68a49.09 49.09 0 0 1 49-48.94h138.02z" fill="#fff"/><path d="m321.32 460.45h-235.87a55.45 55.45 0 0 1 -55.38-55.39v-349.68a55.44 55.44 0 0 1 55.38-55.38h138.07a6.46 6.46 0 0 1 4.55 1.88l146.75 146.75a6.46 6.46 0 0 1 1.88 4.55v251.88a55.45 55.45 0 0 1 -55.38 55.39zm-235.87-447.58a42.56 42.56 0 0 0 -42.51 42.51v349.68a42.56 42.56 0 0 0 42.51 42.51h235.87a42.56 42.56 0 0 0 42.51-42.51v-249.21l-143-143z" fill="#231f20"/><path d="m6.44 462a32 32 0 0 1 31.91-31.92l242.07-.41a32 32 0 0 0 31.92-31.91v-66.3a32 32 0 0 0 -31.92-31.92h-242.07a32 32 0 0 0 -31.91 31.93z" fill="#ec7a9a"/><path d="m6.44 468.45a6.44 6.44 0 0 1 -6.44-6.45v-130.53a38.4 38.4 0 0 1 38.35-38.35h242.07a38.4 38.4 0 0 1 38.36 38.35v66.3a38.4 38.4 0 0 1 -38.36 38.35l-242 .41a25.51 25.51 0 0 0 -25.55 25.47 6.44 6.44 0 0 1 -6.43 6.45zm31.91-162.45a25.51 25.51 0 0 0 -25.48 25.48v101.9a38.19 38.19 0 0 1 25.48-9.71l242.06-.41a25.51 25.51 0 0 0 25.5-25.48v-66.3a25.51 25.51 0 0 0 -25.49-25.48z" fill="#231f20"/><g fill="#fff"><path d="m56.07 383.79h13.65v13.47h-13.65z"/><path d="m89.32 337.78q8-8.19 20.41-8.2 16.59 0 24.25 11a23.89 23.89 0 0 1 4.55 12.42h-13.88a18.78 18.78 0 0 0 -3.4-7.21q-3.7-4.33-11-4.33a13.56 13.56 0 0 0 -11.7 6.11q-4.28 6.1-4.28 17.28t4.52 16.74a14.15 14.15 0 0 0 11.48 5.56q7.14 0 10.89-4.77a20.93 20.93 0 0 0 3.44-7.71h13.8a30 30 0 0 1 -9.12 17.67q-7.34 6.79-18.79 6.8-14.17 0-22.29-9.19t-8.11-25.33q0-17.41 9.23-26.84z"/><path d="m168.61 330.84h15.7l23.5 66.42h-15.05l-4.38-13.65h-24.46l-4.5 13.65h-14.52zm-.91 41.32h17l-8.38-26.16z"/><path d="m255.18 332.29a22 22 0 0 1 11.32 8.42 29.64 29.64 0 0 1 4.74 10.73 51.5 51.5 0 0 1 1.26 11q0 13.24-5.32 22.44-7.18 12.38-22.28 12.38h-28.64v-66.42h28.64a34.6 34.6 0 0 1 10.28 1.45zm-25.44 10.09v43.35h12.81q9.84 0 13.72-9.69a34 34 0 0 0 2.12-12.66q0-10.14-3.18-15.57t-12.66-5.43z"/></g><path d="m199.93 220.85h10.46v63.61h-10.46z" fill="#231f20"/><path d="m205.16 226.08a5.22 5.22 0 0 1 -3.08-1l-90.57-66a5.23 5.23 0 0 1 0-8.45l84.05-61.22a5.22 5.22 0 0 1 6.16 0l90.57 66a5.23 5.23 0 0 1 0 8.45l-84.05 61.22a5.22 5.22 0 0 1 -3.08 1zm-81.69-71.19 81.69 59.49 75.17-54.75-81.69-59.49z" fill="#231f20"/><path d="m205.16 289.7a5.23 5.23 0 0 1 -3.08-1l-90.57-66a5.25 5.25 0 0 1 -2.15-4.23v-63.58h10.45v61l85.35 62.11 79-57.51-.16-60.85h10.46l.14 63.61a5.23 5.23 0 0 1 -2.86 4.68h-.08l-83.4 60.74a5.23 5.23 0 0 1 -3.1 1.03z" fill="#231f20"/><path d="m370.27 153.18h-101.12a45.76 45.76 0 0 1 -45.63-45.63v-101.11z" fill="#fff"/><path d="m370.27 159.62h-101.12a52.12 52.12 0 0 1 -52.06-52.07v-101.11a6.43 6.43 0 0 1 11-4.56l146.73 146.75a6.44 6.44 0 0 1 -4.55 11zm-140.27-137.62v85.58a39.24 39.24 0 0 0 39.19 39.2h85.58z" fill="#231f20"/></svg>